# xmcd
#
# Track frame offsets: 
#        150
#        12275
#        24082
#        41164
#        56624
#        65958
#        89599
#        104130
#        115200
#        129205
#        148193
#        161300
#        180799
#        199336
#        211116
#        225802
#        238354
#        251507
#        268565
#        284398
#        294477
#        307864
#        320629
#        338096
#
# Disc length: 4747 seconds
#
# Revision: 0
# Processed by: cddbd v1.5.1PL0 Copyright (c) Steve Scherf et al.
# Submitted via: ExactAudioCopy v0.95a5
#
DISCID=5a128918
DTITLE=Александр Дольский - Барды
DYEAR=2004
DGENRE=Ballad
TTITLE0=Звезда на ладони
TTITLE1=Велосипед
TTITLE2=Ладони на глазах
TTITLE3=Прощай, ХХ век
TTITLE4=Я ушел
TTITLE5=Осенний полёт
TTITLE6=Ленинградские акварели
TTITLE7=Все в порядке
TTITLE8=Молитва
TTITLE9=Тёплые звёзды
TTITLE10=Два мальчика на длинном берегу
TTITLE11=Одиночество
TTITLE12=Трава и ветер
TTITLE13=Америка
TTITLE14=Горы и глубины
TTITLE15=Дожди и холода
TTITLE16=Алёнушка
TTITLE17=Баллада о друге
TTITLE18=Две женщины
TTITLE19=Моё лицо
TTITLE20=Слова
TTITLE21=Петербург
TTITLE22=Воспоминание о школе
TTITLE23=Находясь далеко
EXTD=
EXTT0=
EXTT1=
EXTT2=
EXTT3=
EXTT4=
EXTT5=
EXTT6=
EXTT7=
EXTT8=
EXTT9=
EXTT10=
EXTT11=
EXTT12=
EXTT13=
EXTT14=
EXTT15=
EXTT16=
EXTT17=
EXTT18=
EXTT19=
EXTT20=
EXTT21=
EXTT22=
EXTT23=
PLAYORDER=
